PathFileType	4	(X/Y/Z)	E:\Qualisys_Data\Carbon_Farble_Plate\Data\Amateur_Runner\S1\T3\S1T3V12_c3d.trc
DataRate	CameraRate	NumFrames	NumMarkers	Units	OrigDataRate	OrigDataStartFrame	OrigNumFrames
200.000000	200.000000	4	39	mm	200.000000	0	322
Frame#	Time	LSHO			RSHO			LICST			RICST			LASIS			LHEEL			RASIS			LTROC			RTROC			SACR			LTH1			LSK4			LTH2			LTH3			RHM5			LSK2			LTH4			RTH1			LTOE			RTH2			RTH3			RTH4			LLEP			RLEP			LSK1			LSK3			RSK1			LHM5			RSK2			LFT1			RSK3			RSK4			LLME			RLME			RTOE			RHEEL			RFT1			RFT2			LFT2			
		X1	Y1	Z1	X2	Y2	Z2	X3	Y3	Z3	X4	Y4	Z4	X5	Y5	Z5	X6	Y6	Z6	X7	Y7	Z7	X8	Y8	Z8	X9	Y9	Z9	X10	Y10	Z10	X11	Y11	Z11	X12	Y12	Z12	X13	Y13	Z13	X14	Y14	Z14	X15	Y15	Z15	X16	Y16	Z16	X17	Y17	Z17	X18	Y18	Z18	X19	Y19	Z19	X20	Y20	Z20	X21	Y21	Z21	X22	Y22	Z22	X23	Y23	Z23	X24	Y24	Z24	X25	Y25	Z25	X26	Y26	Z26	X27	Y27	Z27	X28	Y28	Z28	X29	Y29	Z29	X30	Y30	Z30	X31	Y31	Z31	X32	Y32	Z32	X33	Y33	Z33	X34	Y34	Z34	X35	Y35	Z35	X36	Y36	Z36	X37	Y37	Z37	X38	Y38	Z38	X39	Y39	Z39	

1	0	-2471.350341796875	1561.656372070312	-515.4592895507812	-2557.568359375	1545.679321289062	-205.4898071289062	-2532.977294921875	1081.785278320312	-517.1586303710938	-2538.252685546875	1100.3095703125	-222.1944274902344	-2493.1943359375	1038.341552734375	-492.6752014160156	-3090.274658203125	339.1261901855469	-427.3463745117188	-2502.7275390625	1051.525390625	-230.6304473876953	-2624.503173828125	978.134033203125	-534.7468872070312	-2602.62109375	963.6766967773438	-194.8977355957031	-2653.46044921875	1116.08203125	-367.7432861328125	-2554.582763671875	794.4641723632812	-509.7678833007812	-2979.917236328125	425.3101196289062	-454.5576782226562	-2630.170654296875	816.480712890625	-536.8269653320312	-2590.570556640625	697.6265258789062	-493.9475402832031	-2188.68896484375	169.3695068359375	-207.0596008300781	-2904.750244140625	485.4551391601562	-493.3060607910156	-2669.0302734375	726.0433959960938	-514.3945922851562	-2441.275390625	871.8271484375	-215.2052764892578	-2978.75048828125	113.698600769043	-420.5872192382812	-2510.57861328125	839.6298217773438	-189.3521118164062	-2402.2626953125	777.12158203125	-218.1364593505859	-2476.325927734375	746.9436645507812	-205.2943267822266	-2703.562744140625	574.2844848632812	-482.8821105957031	-2394.295166015625	600.2166748046875	-237.6100616455078	-2852.48828125	418.5924987792969	-487.8357238769531	-2936.93798828125	361.8650817871094	-482.2021179199219	-2363.866943359375	413.3820495605469	-211.7325592041016	-3034.08837890625	159.7926025390625	-480.0053100585938	-2441.35693359375	396.5006103515625	-231.8901977539062	-3108.18359375	319.4754028320312	-394.0880737304688	-2339.83154296875	316.4754028320312	-224.3603820800781	-2413.147705078125	300.9906921386719	-252.5545501708984	-3043.205322265625	307.0934753417969	-473.9443969726562	-2334.9296875	176.3431549072266	-228.9657745361328	-2140.94580078125	205.7770690917969	-275.2534790039062	-2375.27001953125	112.9318008422852	-273.61083984375	-2353.222900390625	92.83883666992188	-305.5503845214844	-2362.021484375	89.64512634277344	-252.7796173095703	-3117.356201171875	316.6695251464844	-444.7679138183594
2	0.005	-2455.351318359375	1561.674438476562	-514.1986083984375	-2540.85302734375	1544.110717773438	-203.9078063964844	-2516.89111328125	1081.544555664062	-517.2858276367188	-2521.609619140625	1099.45849609375	-222.4882354736328	-2476.47412109375	1038.218383789062	-492.4693603515625	-3076.978759765625	346.0722045898438	-426.6341857910156	-2486.840087890625	1050.813354492188	-230.7627716064453	-2606.76806640625	977.4760131835938	-534.8273315429688	-2585.999267578125	962.5995483398438	-195.3150024414062	-2636.4609375	1114.933227539062	-367.3569946289062	-2535.756591796875	794.0787353515625	-507.6546630859375	-2963.92529296875	430.1913146972656	-454.5524291992188	-2610.970458984375	815.1870727539062	-535.9771118164062	-2571.4072265625	696.9264526367188	-492.6591186523438	-2165.886474609375	171.5185241699219	-207.0511627197266	-2887.259765625	488.4989013671875	-493.1399841308594	-2648.78076171875	724.0468139648438	-513.7116088867188	-2425.83935546875	867.7831420898438	-215.2994689941406	-2967.793701171875	120.1290512084961	-419.4110717773438	-2496.34228515625	837.0078735351562	-187.8582611083984	-2388.88330078125	772.6829223632812	-218.4134063720703	-2462.631103515625	743.4691772460938	-202.9725189208984	-2684.220703125	572.4983520507812	-482.6551208496094	-2380.681884765625	597.5961303710938	-237.5823669433594	-2836.91796875	420.5309753417969	-487.5984802246094	-2922.297607421875	365.2950744628906	-481.8973999023438	-2345.855224609375	412.7523803710938	-211.9372863769531	-3022.9052734375	166.1577911376953	-479.2006225585938	-2423.980224609375	394.7184448242188	-231.8927917480469	-3095.651123046875	326.6242370605469	-394.3783874511719	-2320.969970703125	315.8055114746094	-223.8747253417969	-2393.841796875	298.8461608886719	-251.7736206054688	-3029.78173828125	313.3494262695312	-473.1050720214844	-2313.24365234375	175.8042144775391	-227.9364013671875	-2120.225830078125	207.6426086425781	-277.3011779785156	-2354.030517578125	112.780158996582	-272.7848815917969	-2331.354736328125	91.2341079711914	-304.1222839355469	-2339.1328125	88.44967651367188	-251.600830078125	-3104.1318359375	324.0203552246094	-444.9710998535156
3	0.01	-2438.397705078125	1561.133544921875	-512.1754150390625	-2524.79150390625	1542.5966796875	-202.2108306884766	-2500.1572265625	1081.654541015625	-517.5694580078125	-2504.581787109375	1099.02685546875	-221.926513671875	-2459.43896484375	1037.456298828125	-492.4275817871094	-3063.0888671875	353.0730590820312	-426.6859741210938	-2469.208740234375	1050.443481445312	-230.3986053466797	-2589.180908203125	976.4713745117188	-534.8077392578125	-2568.799072265625	961.3994140625	-195.3305816650391	-2620.2890625	1113.974853515625	-366.9763793945312	-2516.563720703125	793.0789184570312	-505.8043212890625	-2947.892578125	434.8192749023438	-454.6207275390625	-2591.339111328125	813.908447265625	-535.2740478515625	-2551.65478515625	695.8927001953125	-491.0965270996094	-2145.4013671875	172.1898803710938	-207.5751190185547	-2869.10107421875	491.0953674316406	-492.9218444824219	-2629.416015625	722.0870971679688	-513.7973022460938	-2413.054931640625	862.4425048828125	-216.0273895263672	-2956.828857421875	124.9945983886719	-419.1056823730469	-2482.114013671875	833.836181640625	-187.0521850585938	-2375.94970703125	766.9332275390625	-219.043701171875	-2450.234619140625	739.705322265625	-200.7087707519531	-2664.43212890625	570.2138671875	-482.4500427246094	-2367.14990234375	594.2600708007812	-238.284423828125	-2820.595458984375	421.7738952636719	-486.9508361816406	-2907.3701171875	368.5028076171875	-481.4759216308594	-2329.0224609375	411.5748291015625	-211.9758148193359	-3011.0908203125	173.0853881835938	-478.7150268554688	-2406.59375	392.890380859375	-231.135009765625	-3082.268798828125	333.9241027832031	-393.5910949707031	-2301.385498046875	315.2195434570312	-223.9864196777344	-2375.314208984375	297.4461669921875	-251.4325866699219	-3016.513916015625	319.2402648925781	-472.7637023925781	-2292.732666015625	174.9971923828125	-227.2727661132812	-2099.7666015625	208.4872436523438	-278.2130737304688	-2333.496337890625	110.72412109375	-270.9604187011719	-2310.40576171875	89.85040283203125	-302.6144409179688	-2318.698486328125	87.62727355957031	-250.8806915283203	-3090.393798828125	331.5927429199219	-444.693359375
4	0.015	-2421.850341796875	1560.234985351562	-510.9667358398438	-2508.082275390625	1540.643188476562	-200.77001953125	-2483.306640625	1080.383666992188	-517.2582397460938	-2488.340087890625	1098.320434570312	-221.710205078125	-2442.31640625	1037.21337890625	-492.185302734375	-3048.390380859375	359.80078125	-426.2996215820312	-2452.440673828125	1049.153076171875	-230.2895812988281	-2571.35888671875	974.6892700195312	-534.8906860351562	-2553.6376953125	959.531982421875	-195.6250152587891	-2603.776123046875	1112.259887695312	-366.8485412597656	-2497.716552734375	792.1839599609375	-503.9052124023438	-2932.0244140625	439.8898315429688	-456.1799926757812	-2572.015625	811.783935546875	-534.5062866210938	-2532.033203125	694.6201171875	-489.7936401367188	-2126.37451171875	173.0061492919922	-208.1412048339844	-2850.521728515625	493.3148803710938	-492.4475402832031	-2608.72216796875	719.6572875976562	-513.1243896484375	-2398.098876953125	857.886474609375	-216.2660217285156	-2945.8740234375	130.78466796875	-418.6000061035156	-2467.349609375	831.7120971679688	-185.8520202636719	-2362.1982421875	762.674072265625	-218.7326202392578	-2436.8759765625	736.4611206054688	-198.6337585449219	-2643.870849609375	567.6526489257812	-481.3682250976562	-2352.071044921875	591.5410766601562	-237.8155059814453	-2804.745361328125	423.5803527832031	-485.9650573730469	-2892.878173828125	373.1076965332031	-480.5333251953125	-2310.93115234375	410.3644104003906	-212.2636871337891	-2998.725341796875	178.9634552001953	-478.4920654296875	-2389.564453125	390.9146423339844	-231.8988647460938	-3067.97998046875	340.5821533203125	-393.0583801269531	-2283.310302734375	314.3182067871094	-224.0347137451172	-2357.32421875	296.0263366699219	-250.7331237792969	-3002.530517578125	325.5177307128906	-472.6499633789062	-2272.68896484375	174.3284454345703	-226.7159576416016	-2081.51611328125	208.8145141601562	-279.7217102050781	-2313.371826171875	108.4227447509766	-269.5892333984375	-2291.272216796875	88.2967529296875	-301.4779663085938	-2299.265380859375	86.35753631591797	-249.9525756835938	-3076.335693359375	338.926513671875	-444.8728942871094
